<?xml version="1.0" ?><!DOCTYPE svg  PUBLIC '-//W3C//DTD SVG 1.1//EN'  'http://www.w3.org/Graphics/SVG/1.1/DTD/svg11.dtd'><svg height="512px" style="enable-background:new 0 0 512 512;" version="1.1" viewBox="0 0 512 512" width="512px" xml:space="preserve" xmlns="http://www.w3.org/2000/svg" xmlns:xlink="http://www.w3.org/1999/xlink"><g id="_x37_4"><g><g><path d="M300.931,433.244c-1.092,0-2.171-0.51-2.862-1.456c-1.116-1.528-0.825-3.663,0.661-4.839     c0.733-0.589,1.468-1.171,2.207-1.765c-0.406-0.315-0.764-0.71-1.024-1.171c-0.631-1.092-0.813-2.152-0.412-3.372l-7.466,4.306     c-0.818,0.468-1.776,0.589-2.681,0.353c-0.903-0.243-1.674-0.837-2.146-1.644c-1.177-2.032-0.219-3.561,1.116-4.761     c-0.298-0.255-0.559-0.564-0.759-0.916c-0.461-0.794-0.673-1.576-0.569-2.438c-6.313,4.281-7.563,4.821-9.37,4.415     c-0.958-0.219-1.867-0.88-2.358-1.729c-1.122-1.959-0.346-3.408,1.109-4.803c-0.97-0.194-1.855-0.783-2.39-1.704     c-0.977-1.687-0.388-3.845,1.298-4.821l29.461-17.005c0.807-0.473,1.776-0.601,2.675-0.357c0.909,0.242,1.68,0.831,2.146,1.649     c0.782,1.353,0.722,2.583-0.055,3.911c1.079,0.291,1.959,0.965,2.498,1.91c0.194,0.328,0.322,0.674,0.4,1.031     c4.846-2.401,6.234-2.092,6.986-1.94c1.158,0.255,2.123,0.946,2.699,1.94c0.212,0.376,0.388,0.733,0.497,1.104l1.995-1.152     c0.813-0.467,1.771-0.594,2.681-0.352c0.897,0.243,1.68,0.837,2.141,1.644c1.625,2.814-0.903,4.882-2.747,6.398     c-0.795,0.648-1.783,1.431-2.905,2.311c0.612,0.303,1.146,0.8,1.492,1.395c1.261,2.195,0.776,3.699-3.669,7.769     c0.115,0.146,0.218,0.291,0.315,0.448c0.964,1.692,0.388,3.852-1.292,4.827c-0.576,0.334-1.194,0.491-1.819,0.479     c-2.329,1-9.806,5.658-15.895,9.733C302.283,433.05,301.598,433.244,300.931,433.244z" style="fill:#E24F3F;"/></g><g><path d="M413.85,380.005c-1.104,0-2.189-0.51-2.869-1.462c-1.092-1.516-0.824-3.608,0.613-4.791     c1.467-1.213,2.959-2.456,4.444-3.699c-0.467,0.049-0.909,0-1.34-0.091c-1.134-0.249-2.074-0.934-2.644-1.916     c-0.613-1.08-0.613-2.354-0.067-3.402c-6.877,3.954-10.291,5.063-12.499,4.561c-1.194-0.272-2.171-0.988-2.759-2.014     c-1.322-2.292-0.825-4.372,4.075-9.345c-3.359,2.037-6.798,4.147-10.134,6.216c-1.612,0.994-3.699,0.552-4.772-1.001     c-0.849-1.23-0.813-2.813-0.012-3.99c-0.759-0.376-1.371-0.952-1.795-1.686c-1.213-2.104-0.389-3.814,1.825-5.877     c-0.188-0.182-0.346-0.394-0.491-0.631c-1.025-1.655-0.51-3.832,1.152-4.857c38.296-23.584,39.648-23.232,41.371-22.796     c0.934,0.23,1.771,0.861,2.25,1.692c0.928,1.607,0.442,3.675-1.104,4.706c-1.468,0.977-2.94,1.965-4.427,2.953     c0.2,0.17,0.376,0.364,0.54,0.576c0.606,0.801,0.813,1.776,0.661,2.692c0.643-0.121,0.982-0.03,1.328,0.055     c0.922,0.242,1.771,0.867,2.256,1.698c1.576,2.735-0.691,4.784-3.093,6.956c-1.613,1.461-3.809,3.341-6.344,5.519     c-1.601,1.37-3.603,3.093-5.664,4.894c6.562-4.105,13.79-8.969,18.084-11.844c11.462-7.714,11.687-7.859,13.603-7.417     c0.952,0.225,1.801,0.85,2.292,1.692c1.456,2.535,0.279,3.851-4.306,8.054c0.406-0.013,0.776,0.024,1.146,0.103     c1.115,0.243,2.031,0.916,2.589,1.88c1.237,2.141,0.353,3.778-2.128,6.265c2.449-1.073,3.093-0.916,3.735-0.758     c0.934,0.23,1.801,0.879,2.28,1.71c0.807,1.401,1.292,2.244-2.025,7.138c4.476-2.638,6.562-3.232,8.254-2.832     c1.098,0.249,2.007,0.916,2.559,1.868c0.977,1.686,0.4,3.845-1.292,4.821c-0.782,0.454-1.661,0.576-2.486,0.4     c-2.904,1.134-11.37,6.883-15.124,9.43c-6.028,4.094-6.259,4.251-7.969,3.869c-0.952-0.225-1.789-0.837-2.28-1.692     c-0.733-1.261-0.612-2.838,0.304-3.978c1.946-2.42,4.002-5.021,5.9-7.484c-6.325,3.73-14.313,8.605-21.771,13.275     C415.129,379.835,414.486,380.005,413.85,380.005z" style="fill:#E24F3F;"/></g><g><path d="M365.904,397.785c-0.225,0-0.437-0.024-0.667-0.055c-1.262-0.193-2.359-0.952-3.014-2.074     c-0.491-0.873-0.631-1.601-0.485-2.311c-7.168,4.094-7.884,3.918-8.994,3.639c-0.928-0.236-1.74-0.854-2.225-1.68     c-0.977-1.697-0.795-3.044,1.006-5.27c-0.922,0.188-1.419,0.072-1.831-0.019c-1.079-0.236-1.978-0.885-2.517-1.825     c-0.867-1.51-0.516-3.433,0.849-4.518l2.56-2.056c-0.079-0.098-0.14-0.2-0.2-0.31c-0.892-1.534-1.456-2.511,2.808-7.393     c-2.432,1.037-3.82,1.183-4.942,0.922c-1.128-0.255-2.056-0.934-2.62-1.91c-0.934-1.619-0.437-3.699,1.135-4.719     c15.33-10,31.334-20.867,43.523-29.594c-9.248,5.719-20.061,12.771-30.183,19.673c-0.807,0.552-1.813,0.733-2.771,0.521     c-0.958-0.225-1.782-0.831-2.273-1.68c-0.752-1.304-0.861-2.541-0.146-3.979c-3.166,1.759-4.876,2.171-6.319,1.85     c-1.104-0.242-2.008-0.903-2.565-1.867c-0.485-0.831-0.601-1.813-0.34-2.735c0.268-0.916,0.886-1.692,1.734-2.146     c2.748-1.468,5.507-2.96,8.266-4.47c-0.048-0.019-0.091-0.024-0.139-0.036c-1.128-0.273-2.068-0.946-2.626-1.923     c-1.219-2.11-0.455-3.76,1.722-5.609c-0.618-0.297-1.14-0.771-1.51-1.401c-0.17-0.297-0.297-0.582-0.395-0.86     c-8.672,3.972-11.261,3.414-12.771,3.087c-2.122-0.455-3.232-1.698-3.784-2.656c-0.952-1.662-0.424-3.772,1.207-4.773     c2.08-1.279,4.233-2.613,6.452-3.984c-0.412-0.314-0.758-0.715-1.03-1.176c-0.073-0.14-0.146-0.268-0.2-0.406     c-6.259,3.911-7.617,4.142-9.176,3.784c-1.013-0.23-1.892-0.88-2.407-1.765c-0.849-1.492-0.521-3.372,0.794-4.476l5.095-4.258     l-2.584,1.492c-0.818,0.467-1.795,0.588-2.704,0.346c-0.904-0.249-1.674-0.855-2.141-1.668c-0.31-0.558-0.467-1.062-0.498-1.54     c-0.764,0.461-1.691,0.606-2.564,0.424c-0.971-0.218-1.808-0.824-2.311-1.686c-1.037-1.801-1.783-3.099,6.307-11.94     c-6.119,3.771-12.692,7.962-17.787,11.219c-18.938,12.087-19.066,12.05-21.109,11.547c-0.94-0.23-1.783-0.861-2.269-1.692     c-0.977-1.686-0.394-3.851,1.292-4.827c0.4-0.224,0.813-0.37,1.237-0.431c2.141-1.037,10.036-6.076,17.053-10.552     c30.952-19.758,36.556-22.529,39.771-21.729c1.073,0.261,1.952,0.909,2.486,1.837c0.807,1.396,0.569,3.166-0.582,4.294     c-1.056,1.025-2.117,2.074-3.185,3.142c7.647-4.275,9.442-3.894,10.328-3.693c1.146,0.249,2.098,0.934,2.668,1.923     c0.285,0.503,0.437,1.049,0.467,1.582l7.738-4.463c1.583-0.916,3.614-0.461,4.657,1.037c0.595,0.843,0.765,1.861,0.559,2.796     c30.249-20.201,45.488-28.988,51.723-27.551c1.225,0.285,2.256,0.928,2.972,1.844c1.03-0.146,1.929-0.128,2.704,0.048     c1.462,0.328,2.663,1.183,3.366,2.414c1.795,3.111-1.049,5.154-4.657,7.726c-0.364,0.261-0.752,0.54-1.171,0.831     c0.176,0.194,0.34,0.412,0.479,0.649c1.092,1.892,1.146,3.96-0.916,6.907c1.419-0.255,2.911,0.382,3.675,1.704     c0.546,0.952,0.795,1.897,0.612,2.947c0.31-0.019,0.619,0.023,0.929,0.091c0.945,0.23,1.752,0.831,2.237,1.674     c0.491,0.849,0.958,2.25,0.431,4.1c-0.576,2.031-1.795,6.295-25.271,21.443c1.965-0.57,2.79-0.382,3.487-0.225     c1.177,0.273,2.146,0.971,2.723,1.978c1.978,3.414-0.928,6.567-10.121,13.741c-5.373,4.19-13.021,9.728-22.724,16.459     c-0.807,0.552-1.613,1.116-2.419,1.674c0.291,1.231-0.085,2.535-1.02,3.402c-2.825,2.668-5.743,5.445-8.521,8.138     c0.34-0.018,0.655,0.019,0.982,0.092c1.074,0.212,1.989,0.873,2.535,1.813c0.867,1.511,0.504,3.433-0.854,4.524l-0.734,0.582     c0.164,0.176,0.304,0.376,0.425,0.595c1.024,1.771,0.709,3.354-1.219,5.773c0.994-0.607,1.995-1.22,2.983-1.82     c0.807-0.509,1.789-0.654,2.711-0.424c0.922,0.236,1.716,0.837,2.195,1.661c1.413,2.438,0.685,4.354-5.907,11.183     c0.601,1.583-0.023,3.421-1.54,4.3c-0.255,0.146-0.516,0.261-0.782,0.334c-0.261,0.224-0.576,0.516-0.837,0.758     C370.265,395.918,368.245,397.785,365.904,397.785z" style="fill:#E24F3F;"/></g><g><path d="M421.454,242.889c-1.226,0-2.407-0.63-3.063-1.765c-0.225-0.382-0.376-0.764-0.461-1.143     c-0.14-0.015-0.279-0.033-0.412-0.061c-1.226-0.246-2.238-0.967-2.851-2.032c-0.576-0.992-0.661-1.919-0.37-2.85     c-12.583,7.308-14.925,6.777-15.919,6.552c-1.152-0.261-2.104-0.949-2.674-1.934c-0.838-1.453-0.54-3.29,0.715-4.406     c0.51-0.449,1.031-0.918,1.559-1.395c-6.531,3.517-7.465,3.287-8.381,3.06c-0.928-0.233-1.795-0.879-2.274-1.71     c-0.879-1.519-0.509-3.454,0.868-4.536l1.867-1.477c-0.807-0.258-1.534-0.81-1.989-1.604c-0.77-1.322-1.007-2.38,0.225-4.215     c-3.002,1.983-3.323,1.907-4.603,1.619c-0.959-0.215-1.795-0.834-2.293-1.686c-0.176-0.3-0.297-0.592-0.382-0.874     c-4.954,2.674-5.543,2.523-6.477,2.28c-0.916-0.237-1.716-0.843-2.189-1.665c-1.395-2.405-0.703-4.539,3.772-8.651     c-0.959-0.218-1.887-0.901-2.384-1.75c-0.977-1.692-0.4-3.854,1.292-4.824c0.516-0.3,1.073-0.452,1.631-0.473     c1.771-0.897,6.623-4.2,10.243-6.668c14.039-9.557,18.254-12.043,21.311-11.349c1.128,0.254,2.05,0.931,2.607,1.904     c1.304,2.253,0.716,3.948-3.136,7.332c0.03-0.015,0.055-0.03,0.079-0.045c0.813-0.488,1.789-0.631,2.705-0.391     c0.915,0.24,1.698,0.833,2.177,1.652c0,0.009,0.006,0.012,0.006,0.021c1.868-0.694,3.19-0.84,4.281-0.588     c1.177,0.264,2.159,0.97,2.741,1.986c0.874,1.507,0.516,3.423-0.837,4.515c-0.03,0.027-0.061,0.049-0.097,0.076l3.688-2.128     c1.606-0.925,3.65-0.455,4.688,1.076c0.788,1.159,0.794,2.617,0.134,3.76c0.352-0.024,0.709,0.012,1.061,0.097     c0.928,0.23,1.729,0.831,2.208,1.655c1.437,2.48-0.383,4.172-1.856,5.531c-0.782,0.728-1.91,1.755-3.269,2.984     c-1.104,1.003-2.365,2.146-3.729,3.365c5.798-3.699,12.02-7.829,17.805-11.813c1.541-1.058,3.639-0.74,4.785,0.73     c1.152,1.471,0.958,3.584-0.437,4.821c-3.026,2.677-6.138,5.482-9.072,8.16c0.612,0.327,1.146,0.822,1.479,1.404     c0.807,1.392,0.559,3.138-0.552,4.26c0.321,0.261,0.606,0.588,0.818,0.97c0.977,1.686,0.4,3.848-1.291,4.824l-11.989,6.922     C422.661,242.738,422.055,242.889,421.454,242.889z M379.331,208.417c0.2,0.203,0.376,0.434,0.527,0.691     C379.701,208.838,379.525,208.613,379.331,208.417z" style="fill:#E24F3F;"/></g><g><path d="M354.552,178.231c-0.357,0-0.618-0.058-0.861-0.115c-1.043-0.24-1.904-0.874-2.438-1.783     c-0.801-1.398-0.558-3.163,0.588-4.288l5.392-5.292c-0.922,0.194-1.401,0.088-1.825-0.009c-1.056-0.243-1.923-0.879-2.45-1.795     c-0.425-0.734-0.649-1.425-0.612-2.171c-5.834,2.902-7.247,2.578-8.018,2.405c-1.122-0.252-2.05-0.925-2.607-1.892     c-0.867-1.501-0.516-3.417,0.837-4.509l2.014-1.637c-0.328-0.27-0.613-0.6-0.819-0.97c-0.849-1.464-0.54-3.314,0.728-4.427     l7.787-6.798c-0.867-0.315-1.57-0.91-2.044-1.71c-0.388-0.679-0.527-1.437-0.442-2.171c-1.613,0.74-2.377,0.746-3.287,0.524     c-0.934-0.23-1.807-0.879-2.292-1.713c-1.734-3.014,0.024-5.206,5.931-9.288c-0.34-1.037-0.182-2.186,0.455-3.105l0.467-0.686     c-0.691,0.122-1.109,0.027-1.522-0.061c-1.019-0.233-1.904-0.879-2.426-1.773c-0.976-1.692-0.394-3.854,1.292-4.827     c0.582-0.337,1.194-0.498,1.85-0.473c1.819-0.834,6.743-3.994,10.686-6.747c1.395-0.979,3.299-0.816,4.512,0.391     c1.213,1.204,1.383,3.108,0.418,4.515l-0.382,0.546c4.9-3.259,6.083-3.787,7.823-3.39c0.952,0.222,1.844,0.879,2.341,1.726     c0.691,1.207,0.813,2.311,0.334,3.457c0.309,0.261,0.582,0.573,0.776,0.919c0.484,0.84,0.703,1.637,0.558,2.532     c0.4-0.024,0.771,0.018,1.146,0.103c1.044,0.23,1.936,0.888,2.469,1.798c0.843,1.461,0.54,3.314-0.74,4.427l-8.738,7.635     c0.648,0.239,1.23,0.67,1.655,1.27c0.54,0.765,0.74,1.674,0.619,2.538c2.188-1.461,4.372-2.935,6.488-4.384     c0.813-0.558,1.819-0.749,2.777-0.531c0.958,0.215,1.789,0.825,2.28,1.677c1.632,2.826-0.782,4.833-3.335,6.959     c-0.31,0.255-0.637,0.527-0.982,0.813c0.679,0.185,1.31,0.582,1.795,1.17c1.164,1.413,1.049,3.475-0.261,4.754l-6.404,6.295     c1.341-0.261,2.784,0.282,3.597,1.489c1.091,1.616,0.673,3.812-0.946,4.906C360.877,176.633,356.407,178.231,354.552,178.231z" style="fill:#E24F3F;"/></g><g><path d="M296.37,313.454c-1.14,0-2.262-0.558-2.941-1.564c-0.461-0.691-0.648-1.492-0.582-2.269     c-0.849-0.309-1.564-0.891-2.007-1.667c-2.147-3.724,2.152-6.562,6.313-9.297c3.523-2.323,8.351-5.216,13.476-8.278     c2.165-1.304,4.718-2.832,7.344-4.427c-0.504-1.109-0.395-2.401,0.278-3.408c-5.476,3.166-6.003,3.038-7.295,2.705     c-0.922-0.236-1.753-0.861-2.226-1.68c-1.092-1.893-0.68-3.251,2.153-6.593c-0.51-0.309-0.94-0.739-1.25-1.261     c-1.353-2.365-0.121-3.663,2.838-6.805c0.37-0.394,0.776-0.818,1.207-1.273c-0.333-0.285-0.631-0.631-0.849-1.013     c-0.867-1.485-1.025-2.723,0.746-5.137c-1.201,0.431-1.644,0.315-2.202,0.176c-0.922-0.236-1.728-0.846-2.207-1.674     c-1.024-1.764-1.868-3.229,6.344-10.854l0,0c-1.007-0.243-1.838-0.861-2.354-1.744c-0.57-0.998-1.115-2.647-0.442-4.867     c0.091-0.306,0.194-0.664,0.364-1.083c-0.638-1.58-0.062-3.429,1.431-4.345c1.364-0.84,2.766-1.692,4.172-2.556     c3.421-3.132,8.903-7.389,17.8-13.26l-24.694,14.257c-1.68,0.977-3.845,0.397-4.821-1.292c-0.612-1.067-0.758-2.359-0.4-3.639     c0.176-0.622,0.395-1.395,1.334-2.62c-0.078-0.122-0.157-0.24-0.225-0.364c-0.939-1.628-0.437-3.705,1.129-4.727l116.065-75.377     c-10.704,5.328-27.823,15.037-55.149,32.632c-32.317,20.798-63.069,42.429-63.373,42.647c-0.813,0.57-1.825,0.771-2.795,0.561     c-0.971-0.215-1.808-0.828-2.299-1.683c-1.013-1.759-0.885-3.49,0.85-5.761c-0.395,0.015-0.644-0.055-0.916-0.127     c-0.916-0.24-1.747-0.867-2.226-1.683c-0.461-0.801-0.625-1.577-0.521-2.393c-7.944,5.203-9.601,5.879-11.577,5.413     c-1.007-0.233-1.88-0.879-2.39-1.765c-0.722-1.243-0.612-2.802,0.267-3.936l2.688-3.451c-0.219-0.027-0.431-0.085-0.704-0.151     c-0.824-0.225-1.553-0.74-2.025-1.456c-0.388-0.582-0.461-0.701-1.122-6.598c-6.834,4.1-7.156,4.015-8.568,3.654     c-0.922-0.24-1.723-0.846-2.195-1.674c-0.353-0.6-0.395-0.773-0.589-2.668c-0.648-0.357-1.194-0.903-1.601-1.604     c-0.425-0.734-0.57-1.592-0.406-2.423c0.291-1.568,0.6-3.263,0.867-4.852l-34.337,19.827c-1.625,0.938-3.702,0.437-4.727-1.137     s-0.637-3.675,0.882-4.782c0.567-0.413,1.149-0.834,1.737-1.265c-0.664-0.379-1.209-0.918-1.595-1.585     c-0.977-1.692-0.4-3.851,1.292-4.824c1.064-0.616,2.313-0.613,3.341-0.106c4.909-1.128,23.842-13.317,39.373-24.536     c0.807-0.583,1.826-0.798,2.809-0.592c0.976,0.212,1.813,0.825,2.316,1.689c1.146,1.971,0.357,3.347-1.02,4.594l0.024,0.036     c-0.006,0.006-0.146,0.112-0.406,0.294c-0.448,0.373-0.939,0.737-1.431,1.101c-0.606,0.458-1.353,1.007-2.214,1.638     c0.54,0.3,1.001,0.743,1.328,1.313c0.601,1.037,0.988,1.71-0.576,10.543c0.17,0.182,0.321,0.379,0.455,0.6     c0.23,0.4,0.352,0.652,0.467,1.353c1.795-1.058,3.911-2.329,5.84-3.505c1.037-0.627,2.316-0.685,3.396-0.151     c1.085,0.531,1.825,1.585,1.952,2.784c0,0,0.279,2.562,0.564,5.154c0.303-0.173,0.594-0.349,0.879-0.512     c8.381-4.918,8.381-4.916,9.879-4.518c1.146,0.3,2.068,1.158,2.444,2.283c0.388,1.122,0.182,2.365-0.552,3.299l-1.443,1.859     c6.44-4.211,7.956-4.882,9.812-4.445c0.952,0.221,1.868,0.897,2.354,1.743c0.8,1.371,0.697,2.604-0.121,4.105     c19.363-10.876,56.811-33.078,83.912-49.146c12.202-7.229,23.166-13.732,31.141-18.415c14.136-8.299,14.136-8.299,15.84-7.85     c0.916,0.239,1.704,0.84,2.178,1.655c1.746,3.026-1.207,4.864-2.626,5.746c-0.019,0.009-0.036,0.019-0.043,0.024     c1.947,0.546,2.979,1.719,3.512,2.638c0.697,1.207,0.606,2.656-0.134,3.745c0.321,0.027,0.631,0.069,0.929,0.13     c1.825,0.385,3.262,1.398,4.142,2.926c0.333,0.585,0.497,1.244,0.473,1.904c0.71-0.288,1.492-0.339,2.238-0.139     c0.903,0.242,1.68,0.837,2.146,1.646c1.753,3.041-0.952,5.749-4.396,8.529c1.413-0.346,2.492-0.403,3.311-0.2     c1.177,0.285,2.147,1.001,2.729,2.004c0.485,0.846,0.612,1.855,0.327,2.79s-0.939,1.707-1.819,2.144     c-0.236,0.115-16.762,8.312-38.254,19.591c-12.354,7.65-26.004,16.386-37.842,23.963c-12.607,8.075-22.747,14.515-30.922,19.624     c0.861,1.513,0.503,3.457-0.903,4.542c-3.967,3.059-8.023,6.258-11.898,9.369c1.23-0.148,2.498,0.367,3.274,1.44     c1.086,1.492,0.831,3.566-0.57,4.76c-3.45,2.933-7.107,6.131-10.406,9.112c0.389,0.292,0.728,0.658,0.965,1.071     c0.794,1.367,0.576,3.099-0.534,4.232c-1.152,1.188-2.341,2.408-3.511,3.621c0.267,0.182,0.515,0.412,0.728,0.679     c0.854,1.056,1,2.462,0.485,3.645c7.113-4.336,7.229-4.312,8.732-3.93c0.922,0.243,1.71,0.843,2.189,1.662     c0.654,1.14,1.315,2.292-0.576,5.33c0.988,0.17,1.904,0.771,2.462,1.717c0.867,1.51,0.934,2.947-0.073,4.621     c0.279,0.267,0.521,0.576,0.722,0.922c1.401,2.432,0.03,4.621-2.468,6.87c0.813,1.649,0.212,3.675-1.407,4.604     c-1.073,0.624-2.335,0.618-3.365,0.097c-0.686,0.151-1.632,0.527-2.802,1.079c-3.13,2.226-7.035,4.864-11.65,7.884     c-10.691,7.005-21.723,13.767-21.831,13.827C297.632,313.284,297.001,313.454,296.37,313.454z" style="fill:#E24F3F;"/></g><g><path d="M243.568,483.711c-1.116,0-2.205-0.527-2.893-1.491c-1.073-1.528-0.782-3.614,0.673-4.785     l6.322-5.1c-0.773-0.291-1.458-0.861-1.871-1.577c-0.833-1.443-0.652-2.681,0.194-3.941l-0.082,0.036     c-1.677,0.97-3.821,0.406-4.806-1.262c-0.885-1.491-0.625-2.656,0.115-3.669c-7.653,4.16-8.535,3.936-9.491,3.699     c-0.921-0.236-1.765-0.867-2.241-1.691c-0.934-1.625-1.034-3.238,0.737-5.604c-0.136-0.17-0.264-0.352-0.373-0.534     c-1.81-3.129,0.94-5.015,4.743-7.622c1.604-1.092,3.632-2.438,5.864-3.9c-0.233-0.412-0.41-0.807-0.513-1.182     c-4.588,2.316-5.449,2.098-6.258,1.897c-0.934-0.23-1.822-0.892-2.304-1.722c-1.474-2.554,0.251-4.882,3.011-7.356     c-0.297-0.255-0.555-0.563-0.749-0.903c-0.897-1.553-0.488-3.529,0.952-4.597l11.456-8.521     c-7.641,4.706-9.979,5.464-11.865,5.027c-1.056-0.255-1.932-0.897-2.462-1.813c-1.919-3.323,1-6.161,8.629-12.311     c1.004-0.813,2.102-1.68,3.293-2.602c-0.597-0.321-1.122-0.813-1.455-1.396c-0.194-0.333-0.337-0.66-0.431-0.964l-39.349,22.718     c-1.692,0.976-3.854,0.388-4.824-1.292c-0.967-1.674-0.858-3.372,0.694-5.592c-0.527-0.042-0.931-0.127-1.273-0.194     c-1.638-0.339-2.962-1.267-3.736-2.607c-0.246-0.424-0.403-0.813-0.488-1.188c-3.636,1.898-5.749,2.396-7.381,2.038     c-1.188-0.273-2.171-0.977-2.765-2.002c-2.165-3.754,0.464-7.198,14.348-16.119c-0.943-0.267-1.722-0.867-2.207-1.716     c-1.064-1.838-1.019-3.741,0.828-6.246c-0.491-0.298-0.904-0.722-1.201-1.237c-2.102-3.639,1.119-6.641,12.535-14.457     c5.533-3.791,13.017-8.618,22.298-14.379c0.221-0.71,0.667-1.347,1.316-1.808l2.444-1.746c-0.101-0.121-0.197-0.255-0.285-0.4     c-1.001-1.632-0.521-3.76,1.079-4.81c5.85-3.814,12.099-7.896,18.551-12.116l-9.906,5.719c-1.613,0.934-3.675,0.448-4.709-1.104     c-1.031-1.553-0.676-3.639,0.807-4.772l1.953-1.48c-0.264-0.018-0.516-0.055-0.764-0.108c-1.077-0.255-1.974-0.91-2.514-1.856     c-0.885-1.527-0.498-3.475,0.904-4.561c1.334-1.03,2.683-2.073,4.033-3.129c-0.482-0.182-0.928-0.485-1.301-0.885     c-0.467-0.504-0.764-1.11-0.882-1.753c-6.337,3.99-8.054,4.572-9.864,4.136c-1.028-0.242-1.877-0.873-2.398-1.771     c-1.228-2.159-0.258-3.451,1.868-5.688c-0.246-0.23-0.461-0.497-0.634-0.795c-0.725-1.255-0.998-1.729,0.691-4.772     c-0.643-0.297-1.186-0.8-1.546-1.419c-0.255-0.442-0.576-0.994-1.325-5.494c-8.123,5.33-9.448,5.039-10.64,4.767     c-1.025-0.219-1.904-0.867-2.423-1.765c-0.619-1.067-0.631-2.396-0.027-3.475c0.843-1.522,1.722-3.142,2.565-4.706     c-3.054,1.788-6.51,3.851-9.8,5.827c-1.556,0.928-3.563,0.546-4.648-0.909c-0.336-0.455-0.549-0.952-0.646-1.474l-7.672,4.427     c-1.691,0.977-3.848,0.395-4.824-1.292c-0.977-1.691-0.397-3.851,1.292-4.827l24.555-14.172c0.813-0.474,1.777-0.595,2.681-0.358     c0.906,0.236,1.68,0.837,2.146,1.649c0.179,0.304,0.315,0.606,0.403,0.904c3.814-2.08,4.306-1.959,5.331-1.692     c0.913,0.23,1.71,0.837,2.183,1.662c0.767,1.328,1.165,2.007-1.68,7.731c0.619-0.425,1.234-0.843,1.825-1.255     c1.007-0.703,2.299-0.831,3.427-0.34c1.122,0.485,1.913,1.522,2.086,2.729c0.212,1.462,0.455,3.057,0.685,4.488     c3.581-2.165,4.339-1.989,5.358-1.759c0.961,0.218,1.841,0.867,2.332,1.716c0.385,0.661,0.537,1.426,0.452,2.153     c1.289-0.474,1.825-0.346,2.453-0.2c0.949,0.225,1.825,0.873,2.313,1.716c0.24,0.419,0.388,0.861,0.446,1.322     c4.797-3.093,5.807-3.48,7.411-3.104c0.946,0.23,1.804,0.861,2.289,1.704c0.061,0.108,0.119,0.218,0.167,0.333     c9.115-5.561,11.213-5.112,12.183-4.906c1.171,0.243,2.135,0.94,2.717,1.947c0.419,0.722,0.582,1.413,0.528,2.08     c9.271-5.949,11.982-7.017,14.196-6.501c1.085,0.242,1.983,0.903,2.522,1.85c0.892,1.54,0.497,3.499-0.922,4.578l-0.703,0.534     l61.226-35.35c0.807-0.461,1.777-0.594,2.675-0.352c0.909,0.242,1.68,0.837,2.146,1.649c1.638,2.838-0.971,4.7-2.22,5.598     c-0.843,0.594-2.08,1.455-3.663,2.534c-3.116,2.123-7.58,5.113-12.959,8.69c-9.491,6.313-22.754,15.064-39.418,26.005     c-6.429,4.214-12.875,8.447-19.006,12.468c0.915-0.352,1.285-0.255,1.952-0.079c1.389,0.364,2.407,1.528,2.602,2.947     c0.194,1.407-0.491,2.802-1.722,3.523c-0.073,0.037-0.122,0.067-0.194,0.109c0.37,0.303,0.686,0.673,0.934,1.098     c1.662,2.893-0.418,5.052-4.585,7.835c0.674,0.364,1.237,0.903,1.62,1.571c1.831,3.178,0.2,6.549-7.199,12.28     c0.698,0.431,1.274,1.019,1.687,1.728c0.606,1.05,0.618,2.287,0.115,3.312c2.014-1.268,3.184-2.001,3.238-2.025     c1.601-1.007,3.724-0.558,4.785,1.007c1.066,1.57,0.703,3.699-0.825,4.833c-0.115,0.091-8.702,6.423-20.158,14.385l31.48-18.175     c1.661-0.964,3.784-0.418,4.784,1.219c0.995,1.638,0.504,3.772-1.109,4.81c-0.564,0.37-1.14,0.733-1.723,1.115     c0.225,0.219,0.425,0.485,0.583,0.759c0.903,1.552,0.484,3.523-0.929,4.59c6.416-3.62,9.752-4.712,11.898-4.202     c1.165,0.267,2.135,0.977,2.711,1.983c0.903,1.552,0.485,3.529-0.952,4.597l-32.087,23.856c0.334,0.243,0.625,0.553,0.861,0.922     c1.05,1.607,0.619,3.76-0.977,4.846c-0.594,0.406-1.194,0.825-1.807,1.231c0.813,0.272,1.504,0.837,1.935,1.583     c1.146,1.982,0.703,3.747-1.522,6.058c0.23,0.225,0.431,0.485,0.589,0.765c1.194,2.067,0.479,3.893-1.613,5.973     c0.048,0.079,0.097,0.158,0.146,0.243c0.321,0.558,0.479,1.177,0.479,1.771c2.104-1.273,4.203-2.559,6.271-3.832     c1.588-0.971,3.656-0.546,4.729,0.964c1.08,1.528,0.795,3.614-0.648,4.784c-1.632,1.335-3.718,3.032-6.064,4.937     c0.873,0.23,1.649,0.801,2.135,1.638c0.764,1.34,0.691,2.505,0.006,3.699c1.188-0.467,1.674-0.346,2.407-0.157     c0.928,0.23,1.765,0.86,2.244,1.691c0.867,1.504,0.516,3.421-0.837,4.512l-9.575,7.714c0.484,0.31,0.897,0.734,1.182,1.231     c0.674,1.164,0.965,1.661-0.612,4.476c1.141-0.03,2.335,0.485,3.051,1.516c1.109,1.607,0.709,3.809-0.892,4.912     c-10.358,7.192-11.662,6.901-13.029,6.593c-0.961-0.213-1.896-0.892-2.39-1.747c-0.664-1.152-0.628-2.583,0.098-3.699     c0.14-0.206,0.275-0.425,0.415-0.631c-4.345,2.571-9.403,5.622-14.179,8.563C244.835,483.548,244.198,483.711,243.568,483.711z" style="fill:#E24F3F;"/></g><g><path d="M151.85,398.167c-0.294,0-0.588-0.036-0.907-0.114c-0.955-0.225-1.81-0.855-2.304-1.698     c-0.679-1.183-0.634-2.002-0.027-3.621c-6.425,4.082-8.338,3.712-9.208,3.542c-1.213-0.23-2.217-0.934-2.823-1.983     c-0.97-1.686-0.446-3.014,0.443-4.057c-0.4,0-0.764-0.036-1.119-0.121c-1.095-0.249-2.001-0.91-2.553-1.868     c-0.294-0.516-0.458-1.001-0.516-1.449c-3.517,1.528-4.554,1.298-5.209,1.146c-1.104-0.249-2.016-0.91-2.565-1.862     c-0.925-1.619-0.449-3.669,1.098-4.706c0.852-0.57,1.71-1.146,2.574-1.734c-0.418-0.297-0.776-0.686-1.031-1.122     c-1.856-3.214,0.897-5.476,8.266-11.498c0.825-0.673,1.695-1.376,2.596-2.098c-0.127-0.17-0.249-0.34-0.355-0.521     c-0.625-1.086-1.286-2.226,0.397-4.961c-8.457,5.046-8.772,4.961-10.249,4.585c-0.919-0.243-1.722-0.85-2.195-1.668     c-0.804-1.395-1.759-3.038,2.538-7.659c-8.942,5.47-17.723,10.861-24.867,15.3c-0.597,0.419-1.161,0.813-1.695,1.183     c-15.704,10.922-15.74,10.916-17.766,10.461c-0.964-0.212-1.832-0.854-2.326-1.71c-0.215-0.376-0.367-0.728-0.458-1.067     c-11.428,5.943-12.835,5.592-14.079,5.282c-1.021-0.261-1.868-0.892-2.383-1.783c-0.643-1.104-0.792-2.443-0.425-3.766     c0.037-0.121,0.079-0.249,0.125-0.376c-3.423,0.952-4.761,0.637-5.707,0.419c-1.453-0.334-2.635-1.177-3.323-2.365     c-1.319-2.287,0-3.875,1.577-5.046c-0.431-0.346-0.792-0.771-1.067-1.243c-0.37-0.643-0.731-1.577-0.685-2.771     c-0.579-0.297-1.086-0.764-1.435-1.358c-0.985-1.68-0.421-3.839,1.25-4.827c0.082-0.043,1.865-1.104,4.985-2.941     c-0.179-0.091-0.346-0.194-0.51-0.315c-1.182-0.873-1.707-2.383-1.307-3.809c0.14-0.484,0.23-0.806,0.509-1.14     c-0.512-0.098-1.006-0.304-1.44-0.631c-1.174-0.867-1.689-2.365-1.304-3.771c0.215-0.789,0.322-1.159,1.559-2.002l-0.03-0.055     c0.279-0.176,24.622-15.47,52.654-32.565c-0.272-0.595-0.367-1.243-0.303-1.855c-0.718-0.376-1.31-0.94-1.722-1.644     c-1.452-2.522-0.261-3.681,4.172-7.993c0.352-0.339,0.719-0.697,1.104-1.067c-4.772,3.026-9.812,6.325-14.527,9.51     c-0.81,0.545-1.819,0.733-2.771,0.509c-0.955-0.212-1.774-0.824-2.265-1.674c-0.882-1.534-1.043-2.517,0.852-4.839     c-0.576,0.109-1.113,0.103-1.652-0.006c-1.104-0.225-2.053-0.904-2.611-1.868c-0.792-1.371-0.573-3.111,0.54-4.239l6.086-6.216     c-6.625,4.045-14.242,8.878-21.398,13.56c-0.815,0.528-1.81,0.71-2.753,0.479c-0.946-0.225-1.759-0.831-2.241-1.674     c-1.667-2.887,0.321-4.53,5.64-8.921c1.461-1.207,3.166-2.583,5.021-4.081c-0.097-0.019-0.191-0.03-0.288-0.055     c-0.961-0.212-1.874-0.886-2.365-1.74c-1.304-2.256,0.176-3.863,1.364-5.149l2.417-2.607c0.604-0.654,1.268-1.37,1.971-2.122     c-1.549,0.552-3.333-0.036-4.218-1.511c-1.007-1.667-0.47-3.832,1.204-4.845c20.464-12.329,20.655-12.28,22.459-11.813     c0.919,0.236,1.716,0.843,2.189,1.668c0.776,1.34,0.582,3.032-0.479,4.172c-0.755,0.807-1.55,1.655-2.362,2.529     c4.524-2.699,6.886-3.469,8.781-3.039c1.146,0.268,2.092,0.946,2.665,1.941c1.362,2.358,0.334,4.045-3.284,7.259     c2.814-1.141,3.618-0.946,4.19-0.807c1.043,0.249,1.907,0.886,2.432,1.789c0.794,1.37,0.576,3.111-0.537,4.239l-0.718,0.739     c0.861-0.188,1.643-0.206,2.38-0.055c1.313,0.261,2.395,1.031,3.05,2.171c0.516,0.88,0.598,1.923,0.307,2.845     c9.97-5.646,11.762-5.233,12.735-5.009c1.088,0.254,1.989,0.909,2.535,1.855c0.822,1.425,0.552,3.232-0.649,4.354     c-0.77,0.716-1.543,1.432-2.319,2.159c1.024-0.516,1.595-0.497,2.459-0.315c0.979,0.219,1.84,0.837,2.341,1.698     c0.164,0.291,0.294,0.564,0.391,0.825c0.091-0.079,0.185-0.146,0.276-0.219c0.807-0.606,1.844-0.843,2.835-0.643     c0.637,0.127,1.222,0.431,1.692,0.867c48.773-28.86,51.978-28.054,54.188-27.508c1.083,0.272,1.974,0.934,2.517,1.861     c0.467,0.813,0.925,2.171,0.418,3.966c-0.313,1.11-0.776,2.754-4.63,6.338c0.058,0.188,0.103,0.363,0.137,0.54     c8.669-4.755,9.245-4.598,10.534-4.258c0.913,0.236,1.719,0.843,2.189,1.668c0.709,1.23,0.867,2.704,0.434,4.166     c-0.294,1.007-0.934,2.092-1.932,3.269c0.376,1.128,0.191,2.244-0.634,3.518c0.394,0.279,0.73,0.648,0.977,1.079     c0.622,1.073,1.201,2.851,0.464,5.233c-0.349,1.135-0.886,2.875-3.781,5.974c0.588,0.31,1.085,0.776,1.422,1.371     c1.971,3.408-1.298,5.651-7.231,9.739c-3.899,2.687-9.512,6.337-17.174,11.183c-4.906,3.099-10.388,6.525-16.149,10.097     c0.782,1.589,0.27,3.523-1.225,4.506c-0.673,0.449-1.355,0.904-2.038,1.358c0.333,0,0.609,0.073,0.949,0.158     c0.918,0.242,1.725,0.849,2.201,1.674c0.87,1.504,0.512,3.42-0.843,4.512c-1.386,1.115-2.802,2.274-4.212,3.463     c0.512-0.14,1.046-0.164,1.577-0.066c1.007,0.199,1.88,0.824,2.393,1.71c1.513,2.632-0.294,4.227-3.16,6.519     c0.143,0.019,0.282,0.055,0.428,0.085c0.931,0.23,1.804,0.886,2.28,1.717c0.989,1.71,1.092,3.087-1.522,5.791     c0.23,0.23,0.431,0.485,0.597,0.771c0.449,0.782,0.698,1.504,0.634,2.305c1.104-0.461,1.777-0.455,2.581-0.268     c0.949,0.225,1.837,0.873,2.326,1.723c1.853,3.214-0.755,5.834-8.672,12.517c-0.773,0.649-1.571,1.316-2.39,1.995     c0.573,1.073,0.619,2.214,0.016,4.275c4.548-2.947,6.173-3.614,7.929-3.208c1.007,0.236,1.88,0.88,2.396,1.771     c0.97,1.692,0.395,3.846-1.295,4.821c-0.555,0.321-1.164,0.474-1.765,0.474c-0.003,0-0.003,0-0.003,0     c-1.495,0.752-5.012,3.111-7.001,4.445C154.683,397.215,153.254,398.167,151.85,398.167z M126.355,330.24     c-23.278,11.929-49.87,25.822-59.807,33.5C77.144,359.446,99.487,346.705,126.355,330.24z" style="fill:#E24F3F;"/></g><g><path d="M305.006,129.889c-1.164,0-2.299-0.573-2.978-1.622c-1.056-1.641-0.576-3.827,1.062-4.882     c24.991-16.043,26.55-15.664,28.199-15.264c0.939,0.228,1.831,0.885,2.316,1.722c0.977,1.689,0.395,3.851-1.292,4.828     c-0.539,0.306-1.115,0.461-1.691,0.473c-2.875,1.191-14.021,7.962-23.712,14.185C306.322,129.71,305.661,129.889,305.006,129.889     z" style="fill:#E24F3F;"/></g><g><path d="M242.143,100.762c-1.064,0-2.11-0.479-2.802-1.377c-1.079-1.407-0.955-3.39,0.3-4.648l6.667-6.686     c-0.77-0.288-1.428-0.834-1.843-1.556c-0.961-1.665-1.549-2.684,3.945-9.057c-0.752-0.364-1.371-0.937-1.798-1.674     c-1.186-2.049-0.606-3.199,2.311-6.449c-1.31,0.1-2.629-0.537-3.33-1.752c-0.476-0.825-0.676-1.559-0.573-2.296     c-1.743,1.162-3.478,2.338-5.143,3.49c-1.567,1.085-3.714,0.731-4.848-0.8c-1.134-1.535-0.849-3.693,0.646-4.873     c1.959-1.55,3.957-3.147,5.919-4.733c-0.37-0.282-0.679-0.637-0.919-1.043c-0.77-1.334-1.552-2.696,2.107-7.668     c-0.861-0.258-1.595-0.834-2.05-1.616c-1.546-2.674-0.23-4.057,6.083-10.716c0.282-0.297,0.588-0.622,0.906-0.961     c-0.021-0.039-0.048-0.082-0.073-0.124c-0.976-1.689-0.4-3.851,1.292-4.824c0.1-0.061,0.206-0.115,0.312-0.161     c0.228-0.149,0.555-0.376,0.934-0.643c3.624-2.489,5.173-3.487,7.108-3.044c0.964,0.215,1.877,0.879,2.367,1.734     c0.919,1.592,0.762,2.935-0.742,5.063c1,0.273,1.85,0.922,2.362,1.807c0.8,1.389,0.569,3.142-0.567,4.272     c-0.931,0.922-1.883,1.892-2.832,2.872c0.768-0.446,1.513-0.879,2.223-1.289c0.807-0.473,1.776-0.603,2.681-0.354     c0.903,0.236,1.686,0.828,2.152,1.644c0.928,1.607,0.595,3.005-0.467,4.448c0.794,0.324,1.468,0.895,1.898,1.646     c1.104,1.916,0.667,3.565-1.316,5.834c0.225,0.224,0.425,0.476,0.582,0.758c0.946,1.638,0.801,3.211-0.897,5.794     c0.952,0.006,1.898,0.397,2.59,1.152c1.262,1.389,1.225,3.521-0.091,4.857c-1.086,1.101-2.189,2.241-3.3,3.387     c0.104,0.012,0.207,0.027,0.31,0.051c1.292,0.249,2.354,1.004,2.996,2.117c0.801,1.386,0.57,3.132-0.552,4.26l-3.221,3.235     l7.859-4.536c1.68-0.979,3.852-0.4,4.821,1.292c0.977,1.686,0.4,3.848-1.291,4.824l-30.953,17.869     C243.355,100.607,242.746,100.762,242.143,100.762z" style="fill:#E24F3F;"/></g><g><path d="M253.45,180.354c-0.3,0-0.601-0.04-0.897-0.115c-0.91-0.24-1.689-0.834-2.162-1.652     c-0.885-1.535-0.764-3.011,0.291-4.697c-0.655-0.333-1.201-0.837-1.585-1.477c-3.072,1.546-4.831,1.877-6.286,1.543     c-1.149-0.261-2.101-0.955-2.674-1.95c-1.667-2.887,0.871-4.7,2.911-6.152c1.249-0.897,3.041-2.132,5.143-3.581     c0.743-0.509,1.625-1.119,2.611-1.801c-0.519-0.349-0.956-0.81-1.277-1.368c-0.3-0.519-0.485-1.085-0.549-1.68l-0.622,0.355     c-0.81,0.47-1.771,0.597-2.681,0.355c-0.903-0.243-1.674-0.837-2.141-1.646c-1.489-2.578-0.612-4.212,6.107-9.345     c-5.755,3.448-6.419,3.284-7.732,2.968c-0.943-0.228-1.822-0.876-2.308-1.713c-2.177-3.772,1.992-7.311,8.16-11.88     c-0.325-0.676-0.413-1.41-0.294-2.11c-1.067,0.74-2.138,1.477-3.199,2.216c-1.586,1.098-3.772,0.719-4.891-0.858     c-1.122-1.577-0.764-3.76,0.798-4.903l22.953-16.732c-4.912,3.193-9.269,6.064-12.422,8.142     c-13.114,8.639-13.121,8.639-14.876,8.226c-0.946-0.224-1.774-0.837-2.259-1.683c-0.57-0.992-0.706-1.855-0.418-2.759     c-10.883,5.885-12.878,5.421-13.803,5.209c-1.128-0.264-2.056-0.943-2.611-1.907c-1.131-1.956-0.464-3.442,1.277-5.122     c-0.285-0.003-0.573-0.045-0.855-0.118c-0.906-0.243-1.677-0.834-2.146-1.646c-0.494-0.861-0.94-1.631-0.379-3.211     c-1.204,0.549-2.247,0.722-3.314,0.531c-0.97-0.176-1.832-0.685-2.447-1.422c-12.778,7.629-14.931,7.153-16.441,6.816     c-1.197-0.264-2.177-0.974-2.765-1.986c-0.746-1.292-0.819-2.471-0.125-3.82c-1.267,0.382-1.792,0.251-2.28,0.136     c-1.007-0.242-1.841-0.861-2.353-1.747c-0.725-1.261-0.707-2.304-0.137-3.314c-0.609-0.313-1.131-0.801-1.474-1.392     c-0.813-1.407-0.558-3.187,0.616-4.315l10.385-9.967c-0.17-0.185-0.318-0.388-0.443-0.606c-0.352-0.61-0.658-1.134-0.643-1.862     c-3.014,1.995-3.903,2.292-5.358,1.962c-0.961-0.222-1.832-0.858-2.323-1.713c-0.976-1.686-0.4-3.848,1.292-4.824     c0.334-0.194,0.688-0.324,1.046-0.4c0.946-0.549,3.126-2.047,4.918-3.272c9.43-6.48,12.141-8.029,14.672-7.459     c1.08,0.246,1.971,0.898,2.517,1.841c0.6,1.034,0.624,2.277,0.121,3.314c0.782,0.167,1.519,0.597,2.05,1.273     c0.925,1.179,0.988,2.78,0.242,4.011c8.451-5.091,10.765-5.764,12.663-5.303c1.043,0.255,1.91,0.895,2.438,1.807     c1.601,2.796-0.831,4.53-2.286,5.564l-3.433,2.438c-0.203,0.146-0.425,0.3-0.649,0.461c0.164,0.182,0.309,0.385,0.434,0.601     c1.234,2.134,0.649,3.963-2.201,6.762c4.515-2.975,9.16-6.128,13.539-9.2c0.813-0.57,1.828-0.773,2.792-0.558     c0.97,0.212,1.804,0.822,2.295,1.68c1.438,2.489,0.425,4.633-3.99,8.32c0.513,1.271,0.249,2.744-0.713,3.757     c-0.321,0.339-0.646,0.685-0.973,1.031l35.107-20.267c0.807-0.47,1.776-0.597,2.681-0.354c0.903,0.242,1.674,0.84,2.141,1.649     c1.055,1.816,0.654,3.011-0.752,4.342c0.352-0.239,0.715-0.476,1.067-0.715c1.589-1.058,3.724-0.673,4.833,0.873     c0.516,0.704,0.722,1.538,0.661,2.341c18.132-11.207,26.276-14.888,29.813-14.042c1.225,0.288,2.231,1.019,2.832,2.062     c0.31,0.527,0.461,1.104,0.479,1.68c11.541-5.937,14.039-5.379,15.531-5.045c1.364,0.309,2.468,1.098,3.123,2.231     c0.37,0.637,0.576,1.262,0.606,1.892c1.716-0.831,2.11-0.728,2.917-0.516c0.909,0.243,1.686,0.834,2.153,1.65     c0.782,1.364,1.061,3.405-2.104,5.409c-0.649,0.407-1.602,0.992-2.826,1.726c-0.54,0.324-1.128,0.676-1.771,1.061     c0.679,0.373,1.23,0.913,1.619,1.58c0.928,1.613,0.454,3.675-1.104,4.703c-6.968,4.651-14.984,10.045-23.202,15.61l29.418-16.98     c0.813-0.47,1.777-0.594,2.688-0.354c0.897,0.242,1.674,0.834,2.134,1.646c0.674,1.155,0.825,2.544,0.437,3.905     c-1.722,6.037-15.895,14.169-47.829,31.289c-3.96,2.123-8.314,4.451-12.608,6.795c0.607,1.738,0.049,3.575-2.983,6.604     c0.304,0.258,0.552,0.564,0.746,0.9c1.188,2.044,0.795,3.875-2.396,7.011c0.861,1.552,0.758,2.783-0.527,4.391     c0.855,0.261,1.589,0.843,2.037,1.622c0.971,1.692,0.389,3.854-1.304,4.824c-0.193,0.109-0.388,0.197-0.594,0.267     c-1.704,0.87-11.456,6.568-20.079,11.668C254.699,180.184,254.08,180.354,253.45,180.354z M271.1,166.63     c0.898,1.552,2.656,2.025,3.973,1.646C273.568,168.68,271.919,168.046,271.1,166.63z M307.935,95.713     c-11.437,6.465-27.028,16.271-43.147,26.975C281.118,112.887,296.837,103.097,307.935,95.713z M191.226,92.444     c0.155,0.173,0.288,0.361,0.407,0.567C191.514,92.802,191.375,92.614,191.226,92.444z" style="fill:#E24F3F;"/></g><g><path d="M129.925,164.301c-0.364,0-0.704-0.042-1.019-0.115c-1.134-0.264-2.065-0.943-2.629-1.919     c-1.595-2.769-0.531-5.331,5.197-10.143c-0.042-0.012-0.085-0.021-0.125-0.034c-0.931-0.23-1.729-0.831-2.208-1.659     c-1.04-1.804-2.265-3.92,8.621-14.233c-0.376-0.291-0.691-0.658-0.934-1.08c-0.81-1.379-0.731-2.283,0.173-3.702     c-3.181,1.883-4.603,2.271-6.059,1.929c-1.013-0.233-1.895-0.883-2.411-1.777c-1.604-2.78-0.161-5.151,6.498-10.57     c-0.088-1.304,0.552-2.605,1.759-3.302c0.515-0.297,1.073-0.449,1.625-0.473c1.434-0.701,5.003-2.996,7.829-4.973     c0.813-0.564,1.822-0.767,2.792-0.549c0.964,0.215,1.798,0.828,2.292,1.683c0.221,0.394,0.385,0.752,0.479,1.095     c0.27,0.006,0.534,0.045,0.81,0.106c0.952,0.224,1.847,0.885,2.338,1.731c0.725,1.252,0.609,2.823-0.291,3.957     c-0.246,0.315-0.503,0.637-0.764,0.97c5.179-3.387,5.691-3.572,7.298-3.19c0.946,0.221,1.783,0.846,2.269,1.689     c0.873,1.507,0.512,3.423-0.846,4.518c-2.574,2.068-5.228,4.248-7.823,6.437c15.204-8.96,16.517-8.632,17.714-8.338     c0.931,0.23,1.804,0.882,2.283,1.71c2.004,3.469-0.4,6.021-12.247,14.388c0.889,0.249,1.652,0.846,2.116,1.643     c0.977,1.689,0.395,3.851-1.292,4.828c-0.224,0.127-0.455,0.227-0.691,0.303c-0.955,0.561-3.745,2.438-6.228,4.112     C139.424,160.817,133.372,164.295,129.925,164.301z M158.548,143.64c0.24,0.406,0.531,0.734,0.855,0.992     C159.067,144.361,158.776,144.031,158.548,143.64z" style="fill:#E24F3F;"/></g><g><path d="M174,278.705c-0.34,0-0.646-0.055-0.967-0.127c-0.934-0.23-1.829-0.897-2.313-1.734     c-1.016-1.759-0.798-3.414,0.807-5.531c-0.443-0.297-0.819-0.697-1.089-1.164c-0.84-1.461-0.531-3.317,0.74-4.421l6.244-5.455     c-0.258-0.239-0.479-0.515-0.652-0.818c-1.634-2.826,0.418-4.633,4.909-8.596c0.649-0.57,1.35-1.18,2.077-1.81     c0-0.003-0.003-0.006-0.009-0.012c-0.677-1.177-0.619-2.638,0.148-3.76c0.512-0.749,1.037-1.522,1.564-2.298     c-0.555,0.073-1.073,0.061-1.577-0.042c-1.186-0.239-2.162-0.934-2.753-1.962c-0.94-1.622-0.445-3.696,1.122-4.721     c2.295-1.504,4.633-3.065,6.968-4.646c-3.511,1.768-4.199,1.595-5.194,1.343c-0.925-0.236-1.792-0.885-2.271-1.713     c-0.765-1.325-1.756-3.044,2.28-7.635c-3.232,2.125-6.458,4.272-9.636,6.404c-0.813,0.549-1.813,0.728-2.769,0.509     c-0.952-0.221-1.771-0.828-2.259-1.677c-0.467-0.8-0.643-1.507-0.561-2.183c-3.605,2.117-4.324,2.083-5.562,1.786     c-0.943-0.221-1.816-0.874-2.298-1.71c-0.679-1.17-0.612-2.586,0.082-3.675c-1.783,1.18-3.56,2.365-5.306,3.545     c-1.568,1.058-3.688,0.691-4.813-0.828c-1.128-1.519-0.855-3.657,0.616-4.845c2.632-2.132,5.355-4.391,8.005-6.634l-16.889,9.745     c-0.81,0.47-1.771,0.598-2.681,0.355c-0.903-0.243-1.674-0.834-2.141-1.646c-0.185-0.318-0.318-0.631-0.412-0.937     c-36.823,22.814-40.428,21.971-42.603,21.462c-0.955-0.222-1.771-0.722-2.356-1.428c-1.271,0.2-2.362,0.221-3.262,0.036     c-2.202-0.452-3.345-1.728-3.918-2.717c-0.664-1.149-0.688-2.138-0.285-3.056c-1.261,0.342-1.789,0.206-2.319,0.076     c-1-0.249-1.832-0.874-2.335-1.75c-1.349-2.335-0.321-4.749,1.716-7.141l-5.464,3.154c-0.813,0.47-1.777,0.591-2.681,0.354     c-0.903-0.242-1.677-0.834-2.146-1.646c-0.649-1.131-0.797-2.48-0.416-3.799c0.694-2.377,3.548-5.13,8.942-8.732     c0.021-0.188,0.061-0.373,0.112-0.555c0.264-0.922,0.888-1.695,1.728-2.144c8.669-4.633,17.593-9.606,26.086-14.53     c1.819-1.204,3.645-2.417,5.446-3.621c-0.115-0.018-0.23-0.042-0.352-0.07c-0.967-0.209-1.883-0.876-2.377-1.731     c-0.279-0.482-0.452-0.943-0.524-1.389c-0.416,0-0.801-0.027-1.146-0.097c-1.531-0.307-2.781-1.177-3.511-2.447     c-0.619-1.067-1.286-2.226,0.409-4.827c-13.263,7.793-15.858,8.451-17.835,7.957c-1.022-0.255-1.868-0.888-2.383-1.783     c-0.679-1.18-0.733-2.244-0.282-3.302c-0.879-0.313-1.601-0.907-2.071-1.719c-0.833-1.446-0.542-3.281,0.701-4.394     c2.028-1.822,4.118-3.736,6.173-5.649c-4.854,2.459-6.11,2.177-6.901,1.998c-1.095-0.246-2.008-0.904-2.553-1.856     c-0.343-0.588-0.491-1.231-0.473-1.864c-0.47,0.021-0.889-0.021-1.286-0.109c-1.067-0.249-1.956-0.879-2.52-1.78     c-6.595,3.89-9.103,4.669-10.998,4.211c-1.083-0.258-1.977-0.918-2.52-1.858c-0.449-0.786-0.686-1.556-0.679-2.35     c-0.858-0.346-1.562-0.949-2.02-1.75c-0.889-1.538-0.497-3.502,0.922-4.576c0.509-0.385,1.016-0.776,1.528-1.167     c-2.39,0.831-3.305,0.634-3.824,0.521c-1.192-0.258-2.168-0.961-2.756-1.977c-1.543-2.672,0.406-4.821,3.696-7.778     c-0.409-0.206-0.782-0.498-1.095-0.861c-1.106-1.295-1.128-3.196-0.058-4.518c0.728-0.892,1.465-1.823,2.208-2.756     c-3.387,1.698-4.363,1.479-5.127,1.31c-1.046-0.23-1.947-0.888-2.474-1.798c-0.977-1.692-0.395-3.854,1.292-4.827     c0.658-0.382,1.389-0.521,2.086-0.461c2.302-0.974,9.13-5.331,14.627-9.172c0.81-0.567,1.826-0.767,2.79-0.552     c0.964,0.215,1.801,0.825,2.292,1.683c0.749,1.298,1.343,2.323-1.667,7.053l11.707-6.759c1.607-0.928,3.66-0.455,4.697,1.088     c0.985,1.464,0.734,3.417-0.555,4.584c0.491-0.109,1.006-0.115,1.51-0.003c0.977,0.209,1.819,0.822,2.317,1.686     c0.867,1.501,1.858,3.22-3.766,9.185c0.051-0.027,0.097-0.058,0.146-0.085c5.297-3.438,10.81-7.135,15.995-10.725     c0.813-0.561,1.822-0.755,2.787-0.54c0.961,0.215,1.792,0.822,2.283,1.68c0.209,0.358,0.355,0.704,0.446,1.04     c1.004-0.309,1.628-0.251,2.316-0.091c1.007,0.243,1.844,0.864,2.356,1.75c0.312,0.543,0.488,1.064,0.542,1.577     c0.133,0.018,0.273,0.048,0.416,0.082c0.949,0.221,1.844,0.879,2.335,1.725c1.482,2.578,0.903,5.146-5.828,10.725     c0.573,1.307,0.458,3.044-3.584,7.802c15.191-10.218,20.134-12.948,23.281-12.22c1.14,0.261,2.083,0.949,2.653,1.938     c0.439,0.764,0.618,1.48,0.563,2.18c19.097-11.859,19.258-11.816,21.195-11.331c0.928,0.23,1.752,0.849,2.231,1.677     c0.928,1.61,0.452,3.666-1.095,4.703c-15.494,10.376-31.965,22.166-40.995,29.561c9.97-5.364,26.386-16.571,40.489-27.293     c0.806-0.615,1.837-0.858,2.835-0.655c0.994,0.2,1.855,0.819,2.365,1.695c1.464,2.544,0.67,5.016-3.696,8.827     c0.039,0.052,0.072,0.109,0.103,0.17c0.23,0.397,0.458,0.919,0.582,1.552c1.513-0.424,2.684-0.497,3.624-0.279     c1.225,0.285,2.231,1.022,2.835,2.068c0.643,1.107,0.785,2.432,0.412,3.724c-0.53,1.819-2.304,3.83-5.588,6.304     c0.236,2.077-1.914,3.448-4.691,5.219c-1.938,1.237-4.733,2.987-8.111,5.097c-8.709,5.452-27.772,17.38-42.754,27.638     c17.705-10.318,41.398-24.755,58.479-35.361c1.646-1.025,3.806-0.534,4.849,1.107c0.985,1.555,0.606,3.587-0.828,4.691     c0.23-0.031,0.479,0.021,0.716,0.072c0.988,0.203,1.847,0.819,2.35,1.695c0.318,0.549,0.542,1.083,0.633,1.628     c0.104-0.072,0.209-0.139,0.313-0.212c1.604-1.064,3.763-0.655,4.864,0.925c0.916,1.319,0.81,3.053-0.161,4.242l0.849-0.488     c1.689-0.979,3.851-0.397,4.828,1.292c0.622,1.083,1.231,2.135-0.37,4.715c7.098-3.718,8.599-3.375,9.463-3.172     c1.095,0.249,1.998,0.91,2.544,1.855c0.279,0.482,0.431,1.001,0.467,1.522c5.773-3.33,8.153-4.024,9.93-3.605     c1.077,0.258,1.965,0.916,2.508,1.85c0.061,0.106,0.118,0.219,0.173,0.321c23.69-14.391,26.44-13.754,28.32-13.323     c1.165,0.273,2.123,0.97,2.699,1.965c0.949,1.646,0.428,3.751-1.183,4.758c-6.382,4.002-12.999,8.299-19.257,12.504     c5.771-3.484,6.064-3.408,7.344-3.083c0.922,0.233,1.72,0.834,2.195,1.658c1.501,2.599,3.685,6.374-29.115,28.973     c-0.237,0.846-0.804,2.014-1.892,3.833c0.931-0.567,1.698-0.837,2.85-0.567c0.952,0.222,1.768,0.825,2.256,1.671     c1.516,2.626-0.403,4.288-2.829,6.392c-0.233,0.2-0.479,0.416-0.74,0.637c0.215,0.182,0.413,0.385,0.585,0.619     c1.091,1.482,0.867,3.554-0.519,4.76l-4.485,3.92c0.416,0.294,0.771,0.68,1.028,1.125c1.155,2.005,0.779,3.302-1.756,5.649     c0.601,0.309,1.113,0.782,1.456,1.376c0.976,1.692,0.394,3.852-1.292,4.827c-0.194,0.109-0.389,0.2-0.588,0.273     c-0.737,0.425-2.781,1.723-4.603,2.881C178.591,277.201,175.829,278.705,174,278.705z M189.756,265.873     c0.515,0.88,1.276,1.389,2.059,1.613C190.975,267.237,190.229,266.686,189.756,265.873z M160.013,193.198     c-7.99,5.207-16.713,10.916-25.188,16.501c3.79-2.199,7.744-4.503,11.525-6.744C150.901,199.771,155.492,196.497,160.013,193.198     z" style="fill:#E24F3F;"/></g></g></g><g id="Layer_1"/></svg>